<?xml version="1.0" encoding="UTF-8" standalone="no"?>
<!DOCTYPE svg PUBLIC "-//W3C//DTD SVG 1.0//EN" "http://www.w3.org/TR/2001/REC-SVG-20010904/DTD/svg10.dtd">
<!-- Generated by Microsoft Visio 11.0, SVG Export, v1.0 Modell_v1.svg Activity Diagram -->
<svg xmlns="http://www.w3.org/2000/svg" xmlns:xlink="http://www.w3.org/1999/xlink" xmlns:ev="http://www.w3.org/2001/xml-events"
		xmlns:v="http://schemas.microsoft.com/visio/2003/SVGExtensions/" width="11in" height="8.5in" viewBox="0 0 792 612"
		xml:space="preserve" color-interpolation-filters="sRGB" class="st16">
	<v:documentProperties v:langID="1033" v:metric="true" v:viewMarkup="false">
		<v:userDefs>
			<v:ud v:nameU="msvNoAutoConnect" v:val="VT0(1):26"/>
		</v:userDefs>
	</v:documentProperties>

	<style type="text/css">
	<![CDATA[
		.st1 {fill:#ffffff;visibility:hidden}
		.st2 {stroke:#000000;stroke-linecap:round;stroke-linejoin:round;stroke-width:0.24}
		.st3 {fill:#ffffff;stroke:#000000;stroke-linecap:round;stroke-linejoin:round;stroke-width:0.24}
		.st4 {fill:#000000;font-family:Arial;font-size:0.666664em;font-weight:bold}
		.st5 {font-size:1em;font-weight:normal}
		.st6 {fill:#000000;fill-opacity:1;stroke:#000000;stroke-opacity:1;stroke-width:0.08695652173913}
		.st7 {fill:#000000;stroke:#000000;stroke-linecap:round;stroke-linejoin:round;stroke-width:0.24}
		.st8 {fill:#ffffff;stroke:none;stroke-linecap:butt;stroke-width:7.2}
		.st9 {fill:#000000;font-family:Arial;font-size:0.666664em}
		.st10 {font-size:1em}
		.st11 {stroke:#000000;stroke-linecap:round;stroke-linejoin:round;stroke-width:0.25}
		.st12 {stroke:none;stroke-linecap:round;stroke-linejoin:round;stroke-width:0.24}
		.st13 {marker-end:url(#mrkr1-56);stroke:#000000;stroke-dasharray:1.75,1.25;stroke-linecap:round;stroke-linejoin:round;stroke-width:0.25}
		.st14 {fill:#000000;fill-opacity:1;stroke:#000000;stroke-opacity:1;stroke-width:0.090252707581227}
		.st15 {marker-end:url(#mrkr1-56);stroke:#000000;stroke-linecap:round;stroke-linejoin:round;stroke-width:0.25}
		.st16 {fill:none;fill-rule:evenodd;font-size:12px;overflow:visible;stroke-linecap:square;stroke-miterlimit:3}
	]]>
	</style>

	<defs id="Markers">
		<g id="lend12">
			<path d="M 3 1 L 0 0 L 3 -1 " style="stroke-linecap:round;stroke-linejoin:round;fill:none"/>
		</g>
		<marker id="mrkr12-13" class="st6" v:arrowType="12" v:arrowSize="2" orient="auto" markerUnits="strokeWidth"
				overflow="visible">
			<use xlink:href="#lend12" transform="scale(-11.5,-11.5) "/>
		</marker>
		<g id="lend1">
			<path d="M 1 -1 L 0 0 L 1 1 " style="stroke-linecap:round;stroke-linejoin:round;fill:none"/>
		</g>
		<marker id="mrkr1-56" class="st14" v:arrowType="1" v:arrowSize="2" orient="auto" markerUnits="strokeWidth"
				overflow="visible">
			<use xlink:href="#lend1" transform="scale(-11.08,-11.08) "/>
		</marker>
	</defs>
	<g v:mID="5" v:index="2" v:groupContext="foregroundPage">
		<title>Activity Diagram</title>
		<v:pageProperties v:drawingScale="1" v:pageScale="1" v:drawingUnits="19" v:shadowOffsetX="9" v:shadowOffsetY="-9"/>
		<v:layer v:name="Connector" v:index="0"/>
		<g id="group1-1" transform="translate(288,-366.75)" v:mID="1" v:groupContext="group">
			<v:userDefs>
				<v:ud v:nameU="Width" v:prompt="" v:val="VT0(0):26"/>
			</v:userDefs>
			<title>Activity.23</title>
			<g id="shape2-2" v:mID="2" v:groupContext="shape">
				<title>Sheet.2</title>
				<rect x="0" y="402.75" width="270" height="209.25" class="st1"/>
				<rect x="0" y="402.75" width="270" height="209.25" class="st2"/>
			</g>
			<g id="shape3-5" v:mID="3" v:groupContext="shape" transform="translate(0,-191.25)">
				<title>Sheet.3</title>
				<desc>act Service</desc>
				<v:userDefs>
					<v:ud v:nameU="Row_1" v:val="VT0(0):26"/>
					<v:ud v:nameU="Row_2" v:val="VT0(0):26"/>
				</v:userDefs>
				<v:textBlock v:margins="rect(4,4,4,4)"/>
				<v:textRect cx="25.3436" cy="603" width="50.69" height="18"/>
				<path d="M0 612 L41.69 612 L50.69 603 L50.69 594 L0 594 L0 612 Z" class="st3"/>
				<text x="4" y="605.4" class="st4" v:langID="1033"><v:paragraph/><v:tabList/>act <tspan class="st5" v:langID="2055">Service</tspan></text>			</g>
		</g>
		<g id="group4-9" transform="translate(396.3,-531.3)" v:mID="4" v:groupContext="group">
			<v:userDefs>
				<v:ud v:nameU="State" v:val="VT0(7):26"/>
			</v:userDefs>
			<title>Initial Node</title>
			<g id="shape5-10" v:mID="5" v:groupContext="shape">
				<title>Sheet.5</title>
			</g>
			<g id="shape6-14" v:mID="6" v:groupContext="shape" transform="translate(3.2625,-3.2625)">
				<title>Sheet.6</title>
				<path d="M0 606.56 A5.4375 5.4375 0 1 1 10.88 606.56 A5.4375 5.4375 0 0 1 0 606.56 Z" class="st7"/>
			</g>
		</g>
		<g id="shape7-16" v:mID="7" v:groupContext="shape" transform="translate(378,-481.5)">
			<title>Receive Signal</title>
			<desc>zum Tisch</desc>
			<v:userDefs>
				<v:ud v:nameU="Sharpness" v:val="VT0(0.125):26"/>
				<v:ud v:nameU="State" v:val="VT0(4):26"/>
				<v:ud v:nameU="TextPosition" v:val="VT0(2):26"/>
				<v:ud v:nameU="TextWidth" v:val="VT0(0.625):1"/>
				<v:ud v:nameU="TextOffSet" v:val="VT0(0.125):26"/>
				<v:ud v:nameU="SetHeight" v:val="VT0(0):26"/>
				<v:ud v:nameU="SetShapeHeight" v:val="VT0(0):26"/>
			</v:userDefs>
			<v:textBlock v:margins="rect(4,4,4,4)"/>
			<v:textRect cx="31.5" cy="598.5" width="46.68" height="17.6036"/>
			<path d="M0 612 L54 612 L54 585 L0 585 L9 598.5 L0 612 Z" class="st3"/>
			<rect v:rectContext="textBkgnd" x="13.2753" y="593.7" width="36.4493" height="9.59985" class="st8"/>
			<text x="13.28" y="600.9" class="st9" v:langID="2055"><v:paragraph v:horizAlign="1"/><v:tabList/>zum Tisch</text>		</g>
		<g id="shape8-20" v:mID="8" v:groupContext="shape" transform="translate(129.054,-391.398)">
			<title> Send  Signal</title>
			<desc>Gruppe möchte bestellen</desc>
			<v:userDefs>
				<v:ud v:nameU="Sharpness" v:val="VT0(0.125):26"/>
				<v:ud v:nameU="State" v:val="VT0(3):26"/>
				<v:ud v:nameU="TextPosition" v:val="VT0(2):26"/>
				<v:ud v:nameU="TextWidth" v:val="VT0(0.8125):1"/>
				<v:ud v:nameU="TextOffSet" v:val="VT0(0.125):26"/>
				<v:ud v:nameU="SetHeight" v:val="VT0(0):26"/>
				<v:ud v:nameU="SetShapeHeight" v:val="VT0(0):26"/>
			</v:userDefs>
			<v:textBlock v:margins="rect(4,4,4,4)"/>
			<v:textRect cx="31.5" cy="598.398" width="70.71" height="27.2035"/>
			<path d="M0 612 L58.5 612 L67.5 598.4 L58.5 584.8 L0 584.8 L0 612 Z" class="st3"/>
			<rect v:rectContext="textBkgnd" x="1.25996" y="588.799" width="60.48" height="19.1997" class="st8"/>
			<text x="18.16" y="596" class="st9" v:langID="2055"><v:paragraph v:horizAlign="1"/><v:tabList/>Gruppe <v:newlineChar/><tspan
						x="1.26" dy="1.2em" class="st10">möchte bestellen</tspan></text>		</g>
		<g id="shape9-25" v:mID="9" v:groupContext="shape" v:layerMember="0" transform="translate(196.554,-405)">
			<title>Dynamic connector</title>
			<path d="M0 612 L190.45 522" class="st11"/>
		</g>
		<g id="shape10-28" v:mID="10" v:groupContext="shape" transform="translate(370.426,-431.796)">
			<title>Control Operator</title>
			<desc>Bestellung aufnehmen</desc>
			<v:userDefs>
				<v:ud v:nameU="Sharpness" v:val="VT0(0.125):26"/>
				<v:ud v:nameU="State" v:val="VT0(6):26"/>
				<v:ud v:nameU="TextPosition" v:val="VT0(2):26"/>
				<v:ud v:nameU="TextWidth" v:val="VT0(0.96038138799002):1"/>
				<v:ud v:nameU="TextOffSet" v:val="VT0(0):26"/>
				<v:ud v:nameU="SetHeight" v:val="VT0(0):26"/>
				<v:ud v:nameU="SetShapeHeight" v:val="VT0(0):26"/>
			</v:userDefs>
			<v:textBlock v:margins="rect(4,4,4,4)"/>
			<v:textRect cx="34.5737" cy="598.398" width="50.26" height="27.2035"/>
			<path d="M0 605.2 A6.80088 6.80088 -180 0 0 6.8 612 L62.35 612 A6.80088 6.80088 -180 0 0 69.15 605.2 L69.15 591.6 A6.80088
						 6.80088 -180 0 0 62.35 584.8 L6.8 584.8 A6.80088 6.80088 -180 0 0 0 591.6 L0 605.2 Z" class="st3"/>
			<rect v:rectContext="textBkgnd" x="14.5583" y="588.799" width="40.0309" height="19.1997" class="st8"/>
			<text x="15.89" y="596" class="st9" v:langID="2055"><v:paragraph v:horizAlign="1"/><v:tabList/>Bestellung<v:newlineChar/><tspan
						x="14.56" dy="1.2em" class="st10">aufnehmen</tspan></text>		</g>
		<g id="group11-33" transform="translate(439.574,-445.398)" v:mID="11" v:groupContext="group">
			<v:userDefs>
				<v:ud v:nameU="MinLength" v:val="VT0(0.0469):26"/>
				<v:ud v:nameU="Position" v:val="VT0(2):26"/>
				<v:ud v:nameU="State" v:val="VT0(7):26"/>
				<v:ud v:nameU="Angle" v:val="VT0(1.5707963267949):32"/>
				<v:ud v:nameU="AngleDelta" v:val="VT0(0):37"/>
				<v:ud v:nameU="IsConjugated" v:val="VT0(0):26"/>
			</v:userDefs>
			<title>Pin</title>
			<g id="shape12-34" v:mID="12" v:groupContext="shape" transform="translate(608.623,608.623) rotate(90)">
				<title>Sheet.12</title>
				<v:userDefs>
					<v:ud v:nameU="FillForegnd" v:val="VT0(0):26"/>
					<v:ud v:nameU="LineColor" v:val="VT0(0):26"/>
				</v:userDefs>
				<path d="M0 612 L6.75 612 L6.75 605.25 L0 605.25 L0 612 Z" class="st3"/>
			</g>
		</g>
		<g id="group15-36" transform="translate(396,-396)" v:mID="15" v:groupContext="group">
			<title>Decision Node</title>
			<g id="shape16-37" v:mID="16" v:groupContext="shape">
				<title>Sheet.16</title>
				<path d="M0 603 L9 594 L18 603 L9 612 L0 603 Z" class="st3"/>
			</g>
			<g id="shape17-39" v:mID="17" v:groupContext="shape" transform="translate(5,-7.2)">
				<title>Sheet.17</title>
				<rect x="0" y="608.4" width="8" height="3.6" class="st1"/>
				<rect x="0" y="608.4" width="8" height="3.6" class="st12"/>
			</g>
			<g id="shape18-42" v:mID="18" v:groupContext="shape" transform="translate(5,-7.2)">
				<title>Sheet.18</title>
				<rect x="0" y="608.4" width="8" height="3.6" class="st1"/>
				<rect x="0" y="608.4" width="8" height="3.6" class="st12"/>
			</g>
			<g id="shape19-45" v:mID="19" v:groupContext="shape" transform="translate(5,-7.2)">
				<title>Sheet.19</title>
				<rect x="0" y="608.4" width="8" height="3.6" class="st1"/>
				<rect x="0" y="608.4" width="8" height="3.6" class="st12"/>
			</g>
			<g id="shape20-48" v:mID="20" v:groupContext="shape" transform="translate(32,-25.2)">
				<title>Sheet.20</title>
				<rect x="0" y="608.4" width="8" height="3.6" class="st1"/>
				<rect x="0" y="608.4" width="8" height="3.6" class="st12"/>
			</g>
		</g>
		<g id="shape21-51" v:mID="21" v:groupContext="shape" v:layerMember="0" transform="translate(391.5,-405)">
			<title>Dynamic connector.21</title>
			<desc>noch weitere Bestellungen?</desc>
			<v:textBlock v:margins="rect(4,4,4,4)" v:tabSpace="42.5197"/>
			<v:textRect cx="-37.9505" cy="595.613" width="108.52" height="17.6036"/>
			<path d="M4.5 612 L-37.95 612 L-37.95 549 L13.5 549" class="st13"/>
			<rect v:rectContext="textBkgnd" x="-87.0947" y="590.813" width="98.2884" height="9.59985" class="st8"/>
			<text x="-87.09" y="598.01" class="st9" v:langID="2055"><v:paragraph v:horizAlign="1"/><v:tabList/>noch weitere Bestellungen?</text>		</g>
		<g id="shape22-59" v:mID="22" v:groupContext="shape" v:layerMember="0" transform="translate(396,-534.562)">
			<title>Dynamic connector.22</title>
			<path d="M9 612 L9 638.06" class="st13"/>
		</g>
		<g id="shape23-64" v:mID="23" v:groupContext="shape" v:layerMember="0" transform="translate(396,-481.5)">
			<title>Dynamic connector.23</title>
			<path d="M9 612 L9 634.5" class="st13"/>
		</g>
		<g id="shape24-69" v:mID="24" v:groupContext="shape" v:layerMember="0" transform="translate(396,-431.898)">
			<title>Dynamic connector.24</title>
			<path d="M9 612.1 L9 629.9" class="st13"/>
		</g>
		<g id="shape25-74" v:mID="25" v:groupContext="shape" v:layerMember="0" transform="translate(396,-396)">
			<title>Dynamic connector.25</title>
			<path d="M9 612 L9 625.5 L157.5 625.5 L157.5 486 L9 486" class="st13"/>
		</g>
		<g id="group26-79" transform="translate(288,-147.375)" v:mID="26" v:groupContext="group">
			<v:userDefs>
				<v:ud v:nameU="Width" v:prompt="" v:val="VT0(0):26"/>
			</v:userDefs>
			<title>Activity.26</title>
			<g id="shape27-80" v:mID="27" v:groupContext="shape">
				<title>Sheet.27</title>
				<rect x="0" y="402.75" width="270" height="209.25" class="st1"/>
				<rect x="0" y="402.75" width="270" height="209.25" class="st2"/>
			</g>
			<g id="shape28-83" v:mID="28" v:groupContext="shape" transform="translate(0,-191.25)">
				<title>Sheet.28</title>
				<desc>act Tellerbringer</desc>
				<v:userDefs>
					<v:ud v:nameU="Row_1" v:val="VT0(0):26"/>
					<v:ud v:nameU="Row_2" v:val="VT0(0):26"/>
				</v:userDefs>
				<v:textBlock v:margins="rect(4,4,4,4)"/>
				<v:textRect cx="34.4588" cy="603" width="68.92" height="18"/>
				<path d="M0 612 L59.92 612 L68.92 603 L68.92 594 L0 594 L0 612 Z" class="st3"/>
				<text x="4" y="605.4" class="st4" v:langID="1033"><v:paragraph/><v:tabList/>act <tspan class="st5" v:langID="2055">Tellerbringer</tspan></text>			</g>
		</g>
		<g id="group29-87" transform="translate(391.8,-322.05)" v:mID="29" v:groupContext="group">
			<v:userDefs>
				<v:ud v:nameU="State" v:val="VT0(7):26"/>
			</v:userDefs>
			<title>Initial Node.29</title>
			<g id="shape30-88" v:mID="30" v:groupContext="shape">
				<title>Sheet.30</title>
			</g>
			<g id="shape31-91" v:mID="31" v:groupContext="shape" transform="translate(3.2625,-3.2625)">
				<title>Sheet.31</title>
				<path d="M0 606.56 A5.4375 5.4375 0 1 1 10.88 606.56 A5.4375 5.4375 0 0 1 0 606.56 Z" class="st7"/>
			</g>
		</g>
		<g id="shape13-93" v:mID="13" v:groupContext="shape" transform="translate(470.25,-391.398)">
			<title> Send  Signal.13</title>
			<desc>Kochauftrag</desc>
			<v:userDefs>
				<v:ud v:nameU="Sharpness" v:val="VT0(0.125):26"/>
				<v:ud v:nameU="State" v:val="VT0(3):26"/>
				<v:ud v:nameU="TextPosition" v:val="VT0(2):26"/>
				<v:ud v:nameU="TextWidth" v:val="VT0(0.625):1"/>
				<v:ud v:nameU="TextOffSet" v:val="VT0(0.125):26"/>
				<v:ud v:nameU="SetHeight" v:val="VT0(0):26"/>
				<v:ud v:nameU="SetShapeHeight" v:val="VT0(0):26"/>
			</v:userDefs>
			<v:textBlock v:margins="rect(4,4,4,4)"/>
			<v:textRect cx="22.5" cy="598.398" width="53.37" height="17.6036"/>
			<path d="M0 612 L45 612 L54 598.4 L45 584.8 L0 584.8 L0 612 Z" class="st3"/>
			<rect v:rectContext="textBkgnd" x="0.929825" y="593.598" width="43.1403" height="9.59985" class="st8"/>
			<text x="0.93" y="600.8" class="st9" v:langID="2055"><v:paragraph v:horizAlign="1"/><v:tabList/>Kochauftrag</text>		</g>
		<g id="shape14-97" v:mID="14" v:groupContext="shape" v:layerMember="0" transform="translate(442.951,-452.199)">
			<title>Dynamic connector.14</title>
			<path d="M0 618.8 L25.05 623.2" class="st15"/>
		</g>
		<g id="shape32-102" v:mID="32" v:groupContext="shape" transform="translate(427.5,931.5) rotate(180)">
			<title>Receive Signal.32</title>
			<desc>Teller bereit</desc>
			<v:userDefs>
				<v:ud v:nameU="Sharpness" v:val="VT0(0.125):26"/>
				<v:ud v:nameU="State" v:val="VT0(4):26"/>
				<v:ud v:nameU="TextPosition" v:val="VT0(2):26"/>
				<v:ud v:nameU="TextWidth" v:val="VT0(0.625):1"/>
				<v:ud v:nameU="TextOffSet" v:val="VT0(0.125):26"/>
				<v:ud v:nameU="SetHeight" v:val="VT0(0):26"/>
				<v:ud v:nameU="SetShapeHeight" v:val="VT0(0):26"/>
			</v:userDefs>
			<v:textBlock v:margins="rect(4,4,4,4)"/>
			<v:textRect cx="31.5" cy="598.5" width="52.47" height="17.6036" transform="rotate(180)"/>
			<path d="M0 612 L54 612 L54 585 L0 585 L9 598.5 L0 612 Z" class="st3"/>
			<rect v:rectContext="textBkgnd" x="-52.619" y="-603.3" width="42.238" height="9.59985" transform="rotate(180)"
					class="st8"/>
			<text x="-52.62" y="-596.1" transform="rotate(180)" class="st9" v:langID="2055"><v:paragraph v:horizAlign="1"/><v:tabList/>Teller bereit</text>		</g>
		<g id="shape34-106" v:mID="34" v:groupContext="shape" transform="translate(427.5,981) rotate(180)">
			<title> Send  Signal.34</title>
			<desc>Teller bringen</desc>
			<v:userDefs>
				<v:ud v:nameU="Sharpness" v:val="VT0(0.125):26"/>
				<v:ud v:nameU="State" v:val="VT0(3):26"/>
				<v:ud v:nameU="TextPosition" v:val="VT0(2):26"/>
				<v:ud v:nameU="TextWidth" v:val="VT0(0.625):1"/>
				<v:ud v:nameU="TextOffSet" v:val="VT0(0.125):26"/>
				<v:ud v:nameU="SetHeight" v:val="VT0(0):26"/>
				<v:ud v:nameU="SetShapeHeight" v:val="VT0(0):26"/>
			</v:userDefs>
			<v:textBlock v:margins="rect(4,4,4,4)"/>
			<v:textRect cx="24.75" cy="598.5" width="59.15" height="17.6036" transform="rotate(180)"/>
			<path d="M0 612 L45 612 L54 598.5 L45 585 L0 585 L0 612 Z" class="st3"/>
			<rect v:rectContext="textBkgnd" x="-49.207" y="-603.3" width="48.9139" height="9.59985" transform="rotate(180)"
					class="st8"/>
			<text x="-49.21" y="-596.1" transform="rotate(180)" class="st9" v:langID="2055"><v:paragraph v:horizAlign="1"/><v:tabList/>Teller bringen</text>		</g>
		<g id="shape33-110" v:mID="33" v:groupContext="shape" v:layerMember="0" transform="translate(418.5,-279)">
			<title>Dynamic connector.33</title>
			<path d="M0 612 L19.53 609.21" class="st11"/>
			<path d="M25.47 608.36 L220.5 580.5" class="st11"/>
		</g>
		<g id="shape35-114" v:mID="35" v:groupContext="shape" v:layerMember="0" transform="translate(373.5,-229.5)">
			<title>Dynamic connector.35</title>
			<path d="M0 612 L-192.7 495" class="st11"/>
		</g>
		<g id="shape36-117" v:mID="36" v:groupContext="shape" v:layerMember="0" transform="translate(391.5,-325.312)">
			<title>Dynamic connector.36</title>
			<path d="M9 612 L9 644.81" class="st13"/>
		</g>
		<g id="shape37-122" v:mID="37" v:groupContext="shape" v:layerMember="0" transform="translate(391.5,-265.5)">
			<title>Dynamic connector.37</title>
			<path d="M9 612 L9 634.5" class="st13"/>
		</g>
		<g id="shape38-127" v:mID="38" v:groupContext="shape" v:layerMember="0" transform="translate(391.5,-216)">
			<title>Dynamic connector.38</title>
			<path d="M9 612 L9 625.5 L49.5 625.5 L49.5 515.86 L9 515.86" class="st13"/>
		</g>
		<g id="group39-132" transform="translate(36,-144)" v:mID="39" v:groupContext="group">
			<v:userDefs>
				<v:ud v:nameU="Width" v:prompt="" v:val="VT0(0):26"/>
			</v:userDefs>
			<title>Activity.23.39</title>
			<g id="shape40-133" v:mID="40" v:groupContext="shape">
				<title>Sheet.40</title>
				<rect x="0" y="180" width="225" height="432" class="st1"/>
				<rect x="0" y="180" width="225" height="432" class="st2"/>
			</g>
			<g id="shape41-136" v:mID="41" v:groupContext="shape" transform="translate(0,-414)">
				<title>Sheet.41</title>
				<desc>act Gastgruppe</desc>
				<v:userDefs>
					<v:ud v:nameU="Row_1" v:val="VT0(0):26"/>
					<v:ud v:nameU="Row_2" v:val="VT0(0):26"/>
				</v:userDefs>
				<v:textBlock v:margins="rect(4,4,4,4)"/>
				<v:textRect cx="32.9079" cy="603" width="65.82" height="18"/>
				<path d="M0 612 L56.82 612 L65.82 603 L65.82 594 L0 594 L0 612 Z" class="st3"/>
				<text x="4" y="605.4" class="st4" v:langID="1033"><v:paragraph/><v:tabList/>act <tspan class="st5" v:langID="2055">Gastgruppe</tspan></text>			</g>
		</g>
		<g id="group42-140" transform="translate(154.104,-531.3)" v:mID="42" v:groupContext="group">
			<v:userDefs>
				<v:ud v:nameU="State" v:val="VT0(7):26"/>
			</v:userDefs>
			<title>Initial Node.42</title>
			<g id="shape43-141" v:mID="43" v:groupContext="shape">
				<title>Sheet.43</title>
			</g>
			<g id="shape44-144" v:mID="44" v:groupContext="shape" transform="translate(3.2625,-3.2625)">
				<title>Sheet.44</title>
				<path d="M0 606.56 A5.4375 5.4375 0 1 1 10.88 606.56 A5.4375 5.4375 0 0 1 0 606.56 Z" class="st7"/>
			</g>
		</g>
		<g id="shape45-146" v:mID="45" v:groupContext="shape" transform="translate(117,-490.5)">
			<title>Action</title>
			<desc>NotImplemented</desc>
			<v:userDefs>
				<v:ud v:nameU="Sharpness" v:val="VT0(0.125):26"/>
				<v:ud v:nameU="State" v:val="VT0(6):26"/>
				<v:ud v:nameU="TextPosition" v:val="VT0(2):26"/>
				<v:ud v:nameU="TextWidth" v:val="VT0(1.272335886281):1"/>
				<v:ud v:nameU="TextOffSet" v:val="VT0(0):26"/>
				<v:ud v:nameU="SetHeight" v:val="VT0(0):26"/>
				<v:ud v:nameU="SetShapeHeight" v:val="VT0(0):26"/>
			</v:userDefs>
			<v:textBlock v:margins="rect(4,4,4,4)"/>
			<v:textRect cx="45.8041" cy="598.5" width="68.93" height="16.0036"/>
			<path d="M0 605.25 A6.75 6.75 -180 0 0 6.75 612 L84.86 612 A6.75 6.75 -180 0 0 91.61 605.25 L91.61 591.75 A6.75 6.75
						 -180 0 0 84.86 585 L6.75 585 A6.75 6.75 -180 0 0 0 591.75 L0 605.25 Z" class="st3"/>
			<rect v:rectContext="textBkgnd" x="15.3438" y="594.294" width="58.6947" height="8.20596" class="st8"/>
			<text x="15.34" y="600.5" class="st9" v:langID="2055"><v:paragraph v:spLine="-1"/><v:tabList/>NotImplemented</text>		</g>
		<g id="shape46-150" v:mID="46" v:groupContext="shape" transform="translate(189.804,864) rotate(180)">
			<title>Receive Signal.46</title>
			<desc>Essen</desc>
			<v:userDefs>
				<v:ud v:nameU="Sharpness" v:val="VT0(0.125):26"/>
				<v:ud v:nameU="State" v:val="VT0(4):26"/>
				<v:ud v:nameU="TextPosition" v:val="VT0(2):26"/>
				<v:ud v:nameU="TextWidth" v:val="VT0(0.625):1"/>
				<v:ud v:nameU="TextOffSet" v:val="VT0(0.125):26"/>
				<v:ud v:nameU="SetHeight" v:val="VT0(0):26"/>
				<v:ud v:nameU="SetShapeHeight" v:val="VT0(0):26"/>
			</v:userDefs>
			<v:textBlock v:margins="rect(4,4,4,4)"/>
			<v:textRect cx="31.5" cy="598.5" width="32.47" height="17.6036" transform="rotate(180)"/>
			<path d="M0 612 L54 612 L54 585 L0 585 L9 598.5 L0 612 Z" class="st3"/>
			<rect v:rectContext="textBkgnd" x="-42.6172" y="-603.3" width="22.2344" height="9.59985" transform="rotate(180)"
					class="st8"/>
			<text x="-42.62" y="-596.1" transform="rotate(180)" class="st9" v:langID="2055"><v:paragraph v:horizAlign="1"/><v:tabList/>Essen</text>		</g>
		<g id="group47-154" transform="translate(153.804,-292.5)" v:mID="47" v:groupContext="group">
			<title>Decision Node.47</title>
			<g id="shape48-155" v:mID="48" v:groupContext="shape">
				<title>Sheet.48</title>
				<path d="M0 603 L9 594 L18 603 L9 612 L0 603 Z" class="st3"/>
			</g>
			<g id="shape49-157" v:mID="49" v:groupContext="shape" transform="translate(5,-7.2)">
				<title>Sheet.49</title>
				<rect x="0" y="608.4" width="8" height="3.6" class="st1"/>
				<rect x="0" y="608.4" width="8" height="3.6" class="st12"/>
			</g>
			<g id="shape50-160" v:mID="50" v:groupContext="shape" transform="translate(5,-7.2)">
				<title>Sheet.50</title>
				<rect x="0" y="608.4" width="8" height="3.6" class="st1"/>
				<rect x="0" y="608.4" width="8" height="3.6" class="st12"/>
			</g>
			<g id="shape51-163" v:mID="51" v:groupContext="shape" transform="translate(5,-7.2)">
				<title>Sheet.51</title>
				<rect x="0" y="608.4" width="8" height="3.6" class="st1"/>
				<rect x="0" y="608.4" width="8" height="3.6" class="st12"/>
			</g>
			<g id="shape52-166" v:mID="52" v:groupContext="shape" transform="translate(32,-25.2)">
				<title>Sheet.52</title>
				<rect x="0" y="608.4" width="8" height="3.6" class="st1"/>
				<rect x="0" y="608.4" width="8" height="3.6" class="st12"/>
			</g>
		</g>
		<g id="group53-169" transform="translate(154.104,-153.3)" v:mID="53" v:groupContext="group">
			<v:userDefs>
				<v:ud v:nameU="State" v:val="VT0(2):26"/>
			</v:userDefs>
			<title>Activity Final</title>
			<g id="shape54-170" v:mID="54" v:groupContext="shape">
				<title>Sheet.54</title>
				<path d="M0 603.3 A8.7 8.7 0 0 1 17.4 603.3 A8.7 8.7 0 1 1 -0 603.3 Z" class="st3"/>
			</g>
			<g id="shape55-173" v:mID="55" v:groupContext="shape" transform="translate(3.2625,-3.2625)">
				<title>Sheet.55</title>
				<path d="M0 606.56 A5.4375 5.4375 0 1 1 10.88 606.56 A5.4375 5.4375 0 0 1 0 606.56 Z" class="st7"/>
			</g>
		</g>
		<g id="shape56-175" v:mID="56" v:groupContext="shape" transform="translate(125.898,-238.5)">
			<title>Action.56</title>
			<desc>Zalä und verreisä</desc>
			<v:userDefs>
				<v:ud v:nameU="Sharpness" v:val="VT0(0.125):26"/>
				<v:ud v:nameU="State" v:val="VT0(6):26"/>
				<v:ud v:nameU="TextPosition" v:val="VT0(2):26"/>
				<v:ud v:nameU="TextWidth" v:val="VT0(1.0251663916521):1"/>
				<v:ud v:nameU="TextOffSet" v:val="VT0(0):26"/>
				<v:ud v:nameU="SetHeight" v:val="VT0(0):26"/>
				<v:ud v:nameU="SetShapeHeight" v:val="VT0(0):26"/>
			</v:userDefs>
			<v:textBlock v:margins="rect(4,4,4,4)"/>
			<v:textRect cx="36.906" cy="598.5" width="72.04" height="16.0036"/>
			<path d="M0 605.25 A6.75 6.75 -180 0 0 6.75 612 L67.06 612 A6.75 6.75 -180 0 0 73.81 605.25 L73.81 591.75 A6.75 6.75
						 -180 0 0 67.06 585 L6.75 585 A6.75 6.75 -180 0 0 0 591.75 L0 605.25 Z" class="st3"/>
			<rect v:rectContext="textBkgnd" x="4.88878" y="594.294" width="61.8085" height="8.20596" class="st8"/>
			<text x="4.89" y="600.5" class="st9" v:langID="2055"><v:paragraph v:spLine="-1"/><v:tabList/>Zalä und verreisä</text>		</g>
		<g id="shape57-179" v:mID="57" v:groupContext="shape" v:layerMember="0" transform="translate(153.804,-535.031)">
			<title>Dynamic connector.57</title>
			<path d="M9 612.47 L9 629.53" class="st13"/>
		</g>
		<g id="shape58-184" v:mID="58" v:groupContext="shape" v:layerMember="0" transform="translate(171.8,-490.5)">
			<title>Dynamic connector.58</title>
			<path d="M-9 612 L-9 625.5 L-9 625.5 L-9 639" class="st13"/>
		</g>
		<g id="shape59-189" v:mID="59" v:groupContext="shape" v:layerMember="0" transform="translate(153.804,-391.398)">
			<title>Dynamic connector.59</title>
			<path d="M9 612 L9 643.4" class="st13"/>
		</g>
		<g id="shape60-194" v:mID="60" v:groupContext="shape" v:layerMember="0" transform="translate(153.804,-333)">
			<title>Dynamic connector.60</title>
			<path d="M9 612 L9 634.5" class="st13"/>
		</g>
		<g id="shape61-199" v:mID="61" v:groupContext="shape" v:layerMember="0" transform="translate(153.804,-292.5)">
			<title>Dynamic connector.61</title>
			<path d="M9 612 L9 639" class="st13"/>
		</g>
		<g id="shape62-204" v:mID="62" v:groupContext="shape" v:layerMember="0" transform="translate(171.8,-238.5)">
			<title>Dynamic connector.62</title>
			<path d="M-9 612 L-9 625.5 L-9 625.5 L-9 636.75" class="st13"/>
		</g>
		<g id="shape63-209" v:mID="63" v:groupContext="shape" v:layerMember="0" transform="translate(176.304,-301.5)">
			<title>Dynamic connector.63</title>
			<desc>noch Speisen offen?</desc>
			<v:textBlock v:margins="rect(4,4,4,4)" v:tabSpace="42.5197"/>
			<v:textRect cx="31.5" cy="603" width="83.18" height="17.6036"/>
			<path d="M-4.5 612 L74.23 612 L74.23 547.78 L-13.5 547.78" class="st13"/>
			<rect v:rectContext="textBkgnd" x="-4.9723" y="598.2" width="72.9445" height="9.59985" class="st8"/>
			<text x="-4.97" y="605.4" class="st9" v:langID="2055"><v:paragraph v:horizAlign="1"/><v:tabList/>noch Speisen offen?</text>		</g>
		<g id="group64-216" transform="translate(607.5,-247.5)" v:mID="64" v:groupContext="group">
			<v:userDefs>
				<v:ud v:nameU="Width" v:prompt="" v:val="VT0(0):26"/>
			</v:userDefs>
			<title>Activity.23.64</title>
			<g id="shape65-217" v:mID="65" v:groupContext="shape">
				<title>Sheet.65</title>
				<rect x="0" y="391.5" width="130.5" height="220.5" class="st1"/>
				<rect x="0" y="391.5" width="130.5" height="220.5" class="st2"/>
			</g>
			<g id="shape66-220" v:mID="66" v:groupContext="shape" transform="translate(0,-202.5)">
				<title>Sheet.66</title>
				<desc>act Koch</desc>
				<v:userDefs>
					<v:ud v:nameU="Row_1" v:val="VT0(0):26"/>
					<v:ud v:nameU="Row_2" v:val="VT0(0):26"/>
				</v:userDefs>
				<v:textBlock v:margins="rect(4,4,4,4)"/>
				<v:textRect cx="21.1228" cy="603" width="42.25" height="18"/>
				<path d="M0 612 L40.2 612 L49.2 603 L49.2 594 L0 594 L0 612 Z" class="st3"/>
				<text x="4" y="605.4" class="st4" v:langID="1033"><v:paragraph/><v:tabList/>act <tspan class="st5" v:langID="2055">Koch</tspan></text>			</g>
		</g>
		<g id="group67-224" transform="translate(657.3,-432.3)" v:mID="67" v:groupContext="group">
			<v:userDefs>
				<v:ud v:nameU="State" v:val="VT0(7):26"/>
			</v:userDefs>
			<title>Initial Node.67</title>
			<g id="shape68-225" v:mID="68" v:groupContext="shape">
				<title>Sheet.68</title>
			</g>
			<g id="shape69-228" v:mID="69" v:groupContext="shape" transform="translate(3.2625,-3.2625)">
				<title>Sheet.69</title>
				<path d="M0 606.56 A5.4375 5.4375 0 1 1 10.88 606.56 A5.4375 5.4375 0 0 1 0 606.56 Z" class="st7"/>
			</g>
		</g>
		<g id="shape70-230" v:mID="70" v:groupContext="shape" transform="translate(639,-378)">
			<title>Receive Signal.70</title>
			<desc>Kochen</desc>
			<v:userDefs>
				<v:ud v:nameU="Sharpness" v:val="VT0(0.125):26"/>
				<v:ud v:nameU="State" v:val="VT0(4):26"/>
				<v:ud v:nameU="TextPosition" v:val="VT0(2):26"/>
				<v:ud v:nameU="TextWidth" v:val="VT0(0.625):1"/>
				<v:ud v:nameU="TextOffSet" v:val="VT0(0.125):26"/>
				<v:ud v:nameU="SetHeight" v:val="VT0(0):26"/>
				<v:ud v:nameU="SetShapeHeight" v:val="VT0(0):26"/>
			</v:userDefs>
			<v:textBlock v:margins="rect(4,4,4,4)"/>
			<v:textRect cx="31.5" cy="598.5" width="37.36" height="17.6036"/>
			<path d="M0 612 L54 612 L54 585 L0 585 L9 598.5 L0 612 Z" class="st3"/>
			<rect v:rectContext="textBkgnd" x="17.9336" y="593.7" width="27.1327" height="9.59985" class="st8"/>
			<text x="17.93" y="600.9" class="st9" v:langID="2055"><v:paragraph v:horizAlign="1"/><v:tabList/>Kochen</text>		</g>
		<g id="shape71-234" v:mID="71" v:groupContext="shape" transform="translate(693,899.898) rotate(180)">
			<title> Send  Signal.71</title>
			<desc>Teller angerichtet</desc>
			<v:userDefs>
				<v:ud v:nameU="Sharpness" v:val="VT0(0.125):26"/>
				<v:ud v:nameU="State" v:val="VT0(3):26"/>
				<v:ud v:nameU="TextPosition" v:val="VT0(2):26"/>
				<v:ud v:nameU="TextWidth" v:val="VT0(0.625):1"/>
				<v:ud v:nameU="TextOffSet" v:val="VT0(0.125):26"/>
				<v:ud v:nameU="SetHeight" v:val="VT0(0):26"/>
				<v:ud v:nameU="SetShapeHeight" v:val="VT0(0):26"/>
			</v:userDefs>
			<v:textBlock v:margins="rect(4,4,4,4)"/>
			<v:textRect cx="22.5" cy="598.398" width="49.81" height="27.2035" transform="rotate(180)"/>
			<path d="M0 612 L45 612 L54 598.4 L45 584.8 L0 584.8 L0 612 Z" class="st3"/>
			<rect v:rectContext="textBkgnd" x="-42.2909" y="-607.998" width="39.5818" height="19.1997" transform="rotate(180)"
					class="st8"/>
			<text x="-32.5" y="-600.8" transform="rotate(180)" class="st9" v:langID="2055"><v:paragraph v:horizAlign="1"/><v:tabList/>Teller<v:newlineChar/><tspan
						x="-42.29" dy="1.2em" class="st10">angerichtet</tspan></text>		</g>
		<g id="shape72-239" v:mID="72" v:groupContext="shape" v:layerMember="0" transform="translate(657,-435.562)">
			<title>Dynamic connector.72</title>
			<path d="M9 612 L9 642.56" class="st13"/>
		</g>
		<g id="shape73-244" v:mID="73" v:groupContext="shape" v:layerMember="0" transform="translate(657,-378)">
			<title>Dynamic connector.73</title>
			<path d="M9 612 L9 665.9" class="st13"/>
		</g>
		<g id="shape74-249" v:mID="74" v:groupContext="shape" v:layerMember="0" transform="translate(657,-296.898)">
			<title>Dynamic connector.74</title>
			<path d="M9 612 L9 625.5 L49.5 625.5 L49.5 485.9 L9 485.9" class="st13"/>
		</g>
		<g id="shape75-254" v:mID="75" v:groupContext="shape" v:layerMember="0" transform="translate(524.25,-407.25)">
			<title>Dynamic connector.75</title>
			<path d="M0 614.25 L26.27 617.12" class="st11"/>
			<path d="M32.23 617.77 L123.75 627.75" class="st11"/>
		</g>
		<g id="shape76-258" v:mID="76" v:groupContext="shape" transform="translate(41.9531,-392.625)">
			<title>Object Node</title>
			<desc>Stuhl</desc>
			<v:userDefs>
				<v:ud v:nameU="Sharpness" v:val="VT0(0.125):26"/>
				<v:ud v:nameU="State" v:val="VT0(1):26"/>
				<v:ud v:nameU="TextPosition" v:val="VT0(2):26"/>
				<v:ud v:nameU="TextWidth" v:val="VT0(0.77213541766667):1"/>
				<v:ud v:nameU="TextOffSet" v:val="VT0(0):26"/>
				<v:ud v:nameU="SetHeight" v:val="VT0(0):26"/>
				<v:ud v:nameU="SetShapeHeight" v:val="VT0(0):26"/>
			</v:userDefs>
			<v:textBlock v:margins="rect(4,4,4,4)"/>
			<v:textRect cx="27.7969" cy="598.5" width="28.47" height="16.0036"/>
			<path d="M0 612 L55.59 612 L55.59 585 L0 585 L0 612 Z" class="st3"/>
			<rect v:rectContext="textBkgnd" x="17.5669" y="594.294" width="18.234" height="8.20596" class="st8"/>
			<text x="17.57" y="600.5" class="st9" v:langID="2055"><v:paragraph v:spLine="-1"/><v:tabList/>Stuhl</text>		</g>
		<g id="shape77-262" v:mID="77" v:groupContext="shape" transform="translate(135,-186.75)">
			<title>Action.77</title>
			<desc>aufstehen</desc>
			<v:userDefs>
				<v:ud v:nameU="Sharpness" v:val="VT0(0.125):26"/>
				<v:ud v:nameU="State" v:val="VT0(6):26"/>
				<v:ud v:nameU="TextPosition" v:val="VT0(2):26"/>
				<v:ud v:nameU="TextWidth" v:val="VT0(0.77213541766667):1"/>
				<v:ud v:nameU="TextOffSet" v:val="VT0(0):26"/>
				<v:ud v:nameU="SetHeight" v:val="VT0(0):26"/>
				<v:ud v:nameU="SetShapeHeight" v:val="VT0(0):26"/>
			</v:userDefs>
			<v:textBlock v:margins="rect(4,4,4,4)"/>
			<v:textRect cx="27.7969" cy="598.5" width="45.37" height="16.0036"/>
			<path d="M0 605.25 A6.75 6.75 -180 0 0 6.75 612 L48.84 612 A6.75 6.75 -180 0 0 55.59 605.25 L55.59 591.75 A6.75 6.75
						 -180 0 0 48.84 585 L6.75 585 A6.75 6.75 -180 0 0 0 591.75 L0 605.25 Z" class="st3"/>
			<rect v:rectContext="textBkgnd" x="9.11377" y="594.294" width="35.1403" height="8.20596" class="st8"/>
			<text x="9.11" y="600.5" class="st9" v:langID="2055"><v:paragraph v:spLine="-1"/><v:tabList/>aufstehen</text>		</g>
		<g id="shape78-266" v:mID="78" v:groupContext="shape" transform="translate(135,-436.5)">
			<title>Action.78</title>
			<desc>Setzen</desc>
			<v:userDefs>
				<v:ud v:nameU="Sharpness" v:val="VT0(0.125):26"/>
				<v:ud v:nameU="State" v:val="VT0(6):26"/>
				<v:ud v:nameU="TextPosition" v:val="VT0(2):26"/>
				<v:ud v:nameU="TextWidth" v:val="VT0(0.77213541766667):1"/>
				<v:ud v:nameU="TextOffSet" v:val="VT0(0):26"/>
				<v:ud v:nameU="SetHeight" v:val="VT0(0):26"/>
				<v:ud v:nameU="SetShapeHeight" v:val="VT0(0):26"/>
			</v:userDefs>
			<v:textBlock v:margins="rect(4,4,4,4)"/>
			<v:textRect cx="27.7969" cy="598.5" width="35.14" height="16.0036"/>
			<path d="M0 605.25 A6.75 6.75 -180 0 0 6.75 612 L48.84 612 A6.75 6.75 -180 0 0 55.59 605.25 L55.59 591.75 A6.75 6.75
						 -180 0 0 48.84 585 L6.75 585 A6.75 6.75 -180 0 0 0 591.75 L0 605.25 Z" class="st3"/>
			<rect v:rectContext="textBkgnd" x="14.2309" y="594.294" width="24.906" height="8.20596" class="st8"/>
			<text x="14.23" y="600.5" class="st9" v:langID="2055"><v:paragraph v:spLine="-1"/><v:tabList/>Setzen</text>		</g>
		<g id="shape79-270" v:mID="79" v:groupContext="shape" v:layerMember="0" transform="translate(153.8,-436.551)">
			<title>Dynamic connector.79</title>
			<path d="M9 612.05 L9 618.8 L9 618.8 L9 629.95" class="st13"/>
		</g>
		<g id="group80-275" transform="translate(135,774) rotate(180)" v:mID="80" v:groupContext="group">
			<v:userDefs>
				<v:ud v:nameU="MinLength" v:val="VT0(0.0469):26"/>
				<v:ud v:nameU="Position" v:val="VT0(2):26"/>
				<v:ud v:nameU="State" v:val="VT0(7):26"/>
				<v:ud v:nameU="Angle" v:val="VT0(4.7123889803847):32"/>
				<v:ud v:nameU="AngleDelta" v:val="VT0(0):37"/>
				<v:ud v:nameU="IsConjugated" v:val="VT0(0):26"/>
			</v:userDefs>
			<title>Pin.80</title>
			<g id="shape81-276" v:mID="81" v:groupContext="shape" transform="translate(608.623,608.623) rotate(90)">
				<title>Sheet.81</title>
				<v:userDefs>
					<v:ud v:nameU="FillForegnd" v:val="VT0(0):26"/>
					<v:ud v:nameU="LineColor" v:val="VT0(0):26"/>
				</v:userDefs>
				<path d="M0 612 L6.75 612 L6.75 605.25 L0 605.25 L0 612 Z" class="st3"/>
			</g>
		</g>
		<g id="shape82-278" v:mID="82" v:groupContext="shape" v:layerMember="0" transform="translate(69.75,-419.625)">
			<title>Dynamic connector.82</title>
			<desc>Gruppengrösse</desc>
			<v:textBlock v:margins="rect(4,4,4,4)" v:tabSpace="42.5197"/>
			<v:textRect cx="30.9366" cy="596.813" width="65.38" height="17.6036"/>
			<path d="M0 612 L61.87 581.62" class="st15"/>
			<rect v:rectContext="textBkgnd" x="3.36418" y="592.013" width="55.1448" height="9.59985" class="st8"/>
			<text x="3.36" y="599.21" class="st9" v:langID="2055"><v:paragraph v:horizAlign="1"/><v:tabList/>Gruppengrösse</text>		</g>
		<g id="group83-285" transform="translate(135,1023.75) rotate(180)" v:mID="83" v:groupContext="group">
			<v:userDefs>
				<v:ud v:nameU="MinLength" v:val="VT0(0.0469):26"/>
				<v:ud v:nameU="Position" v:val="VT0(2):26"/>
				<v:ud v:nameU="State" v:val="VT0(7):26"/>
				<v:ud v:nameU="Angle" v:val="VT0(4.7123889803847):32"/>
				<v:ud v:nameU="AngleDelta" v:val="VT0(0):37"/>
				<v:ud v:nameU="IsConjugated" v:val="VT0(0):26"/>
			</v:userDefs>
			<title>Pin.83</title>
			<g id="shape84-286" v:mID="84" v:groupContext="shape" transform="translate(608.623,608.623) rotate(90)">
				<title>Sheet.84</title>
				<v:userDefs>
					<v:ud v:nameU="FillForegnd" v:val="VT0(0):26"/>
					<v:ud v:nameU="LineColor" v:val="VT0(0):26"/>
				</v:userDefs>
				<path d="M0 612 L6.75 612 L6.75 605.25 L0 605.25 L0 612 Z" class="st3"/>
			</g>
		</g>
		<g id="shape85-288" v:mID="85" v:groupContext="shape" v:layerMember="0" transform="translate(153.8,-187.725)">
			<title>Dynamic connector.85</title>
			<path d="M9 612.97 L9 619.72 L9 619.72 L9 629.02" class="st13"/>
		</g>
		<g id="shape86-293" v:mID="86" v:groupContext="shape" v:layerMember="0" transform="translate(131.623,-200.25)">
			<title>Dynamic connector.86</title>
			<desc>Gruppengrösse</desc>
			<v:textBlock v:margins="rect(4,4,4,4)"/>
			<v:textRect cx="-30.9366" cy="515.813" width="65.38" height="17.6036"/>
			<path d="M0 612 L-61.87 419.62" class="st15"/>
			<rect v:rectContext="textBkgnd" x="-58.509" y="511.013" width="55.1448" height="9.59985" class="st8"/>
			<text x="-58.51" y="518.21" class="st9" v:langID="2055"><v:paragraph v:horizAlign="1"/><v:tabList/>Gruppengrösse</text>		</g>
		<g id="shape87-300" v:mID="87" v:groupContext="shape" transform="translate(468,-427.5)">
			<title>Continuous Flow</title>
			<desc>Bestellung</desc>
			<v:userDefs>
				<v:ud v:nameU="Sharpness" v:val="VT0(0.125):26"/>
				<v:ud v:nameU="State" v:val="VT0(1):26"/>
				<v:ud v:nameU="TextPosition" v:val="VT0(2):26"/>
				<v:ud v:nameU="TextWidth" v:val="VT0(0.813465952199):1"/>
				<v:ud v:nameU="TextOffSet" v:val="VT0(0):26"/>
				<v:ud v:nameU="SetHeight" v:val="VT0(0):26"/>
				<v:ud v:nameU="SetShapeHeight" v:val="VT0(0):26"/>
			</v:userDefs>
			<v:textBlock v:margins="rect(4,4,4,4)"/>
			<v:textRect cx="29.2848" cy="598.5" width="47.59" height="16.0036"/>
			<path d="M0 612 L58.57 612 L58.57 585 L0 585 L0 612 Z" class="st3"/>
			<rect v:rectContext="textBkgnd" x="9.49232" y="594.294" width="37.359" height="8.20596" class="st8"/>
			<text x="9.49" y="600.5" class="st9" v:langID="2055"><v:paragraph v:spLine="-1"/><v:tabList/>Bestellung</text>		</g>
		<g id="shape88-304" v:mID="88" v:groupContext="shape" v:layerMember="0" transform="translate(506.267,-432.051)">
			<title>Dynamic connector.88</title>
			<path d="M-8.98 616.55 L-8.98 619.93 L-9.02 619.93 L-9.02 625.45" class="st15"/>
		</g>
	</g>
</svg>
